<svg width="19" height="21" viewBox="0 0 19 21" fill="none" xmlns="http://www.w3.org/2000/svg">
<path d="M16.9945 2.95012H15.9917V0.94458H13.9862V2.95012H5.96403V0.94458H3.95849V2.95012H2.95574C1.8477 2.95012 0.960254 3.84758 0.960254 4.95567L0.950195 18.9943C0.950195 20.1024 1.84765 20.9999 2.95574 20.9999H16.9945C18.1025 20.9999 19 20.1024 19 18.9943V4.95562C19 3.84758 18.1025 2.95012 16.9945 2.95012ZM16.9945 18.9943H2.95574V7.96391H16.9945V18.9943Z" fill="#50424F"/>
<rect x="5" y="10" width="2" height="2" fill="#50424F"/>
<rect x="5" y="14" width="2" height="2" fill="#50424F"/>
<rect x="9" y="14" width="2" height="2" fill="#50424F"/>
<rect x="9" y="10" width="2" height="2" fill="#50424F"/>
<rect x="13" y="10" width="2" height="2" fill="#50424F"/>
</svg>
