<svg xmlns="http://www.w3.org/2000/svg" width="19.141" height="19.141" viewBox="0 0 19.141 19.141"><defs><style>.a{fill:#fff;}</style></defs><path class="a" d="M206.621,212.943a9.57,9.57,0,1,0,4.786,17.86l-1.2-2.071a7.179,7.179,0,1,1,3.589-6.218v1.042a1.238,1.238,0,0,1-1.2,1.351,1.2,1.2,0,0,1-1.2-1.2v-4.785h-1.654a4.78,4.78,0,1,0,.116,7.082A3.567,3.567,0,0,0,212.6,227.3a3.63,3.63,0,0,0,3.589-3.743v-1.042A9.581,9.581,0,0,0,206.621,212.943Zm0,11.963a2.393,2.393,0,1,1,2.393-2.393A2.395,2.395,0,0,1,206.621,224.906Z" transform="translate(-197.051 -212.943)"/></svg>