<?xml version="1.0" encoding="utf-8"?>
<!-- Generator: Adobe Illustrator 22.0.1, SVG Export Plug-In . SVG Version: 6.00 Build 0)  -->
<svg version="1.1" id="Capa_1" xmlns="http://www.w3.org/2000/svg" xmlns:xlink="http://www.w3.org/1999/xlink" x="0px" y="0px"
	 viewBox="0 0 432.1 486.4" style="enable-background:new 0 0 432.1 486.4;" xml:space="preserve">
<style type="text/css">
	.st0{fill:#E237D6;}
</style>
<g>
	<g>
		<path class="st0" d="M418.7,70H317.5V53.5C317.5,24,293.5,0,264,0h-96.2c-29.5,0-53.5,24-53.5,53.5V70H13.1
			C5.6,70-0.4,76-0.4,83.5S5.6,97,13.1,97h24.4v317.2c0,39.8,32.4,72.2,72.2,72.2h212.4c39.8,0,72.2-32.4,72.2-72.2V97h24.4
			c7.5,0,13.5-6,13.5-13.5S426.2,70,418.7,70z M141.3,53.5c0-14.6,11.9-26.5,26.5-26.5H264c14.6,0,26.5,11.9,26.5,26.5V70H141.3
			V53.5z M367.3,414.2c0,24.9-20.3,45.2-45.2,45.2H109.7c-24.9,0-45.2-20.3-45.2-45.2V97h302.9v317.2H367.3z"/>
		<path class="st0" d="M215.9,411c7.5,0,13.5-6,13.5-13.5V158.9c0-7.5-6-13.5-13.5-13.5s-13.5,6-13.5,13.5v238.5
			C202.4,404.9,208.4,411,215.9,411z"/>
		<path class="st0" d="M127.8,396.1c7.5,0,13.5-6,13.5-13.5V173.7c0-7.5-6-13.5-13.5-13.5s-13.5,6-13.5,13.5v208.9
			C114.3,390.1,120.4,396.1,127.8,396.1z"/>
		<path class="st0" d="M304,396.1c7.5,0,13.5-6,13.5-13.5V173.7c0-7.5-6-13.5-13.5-13.5s-13.5,6-13.5,13.5v208.9
			C290.5,390.1,296.5,396.1,304,396.1z"/>
	</g>
</g>
</svg>
